<svg width="20" height="20" viewBox="0 0 20 20" fill="none" xmlns="http://www.w3.org/2000/svg">
<g clip-path="url(#clip0)">
<path d="M18.8616 3.28133C18.5792 2.99859 18.2441 2.8572 17.8572 2.8572H16.4288V1.78573C16.4288 1.29475 16.2538 0.874335 15.9041 0.524632C15.5543 0.17493 15.1341 0 14.6429 0H13.9288C13.4376 0 13.0173 0.17493 12.6675 0.524671C12.3177 0.874335 12.1429 1.29479 12.1429 1.78577V2.85723H7.85739V1.78577C7.85739 1.29479 7.68246 0.874374 7.33272 0.524671C6.98306 0.17493 6.56268 0 6.0715 0H5.35728C4.86623 0 4.44581 0.17493 4.09607 0.524671C3.74641 0.874335 3.57144 1.29479 3.57144 1.78577V2.85723H2.14299C1.756 2.85723 1.42123 2.99862 1.13849 3.28137C0.855746 3.56407 0.714355 3.89899 0.714355 4.28587V18.5716C0.714355 18.9582 0.855746 19.293 1.13849 19.5759C1.42119 19.8586 1.75596 20 2.14299 20H17.8569C18.2438 20 18.5789 19.8586 18.8613 19.5759C19.1441 19.2931 19.2855 18.9581 19.2855 18.5716V4.28583C19.2855 3.89884 19.1442 3.56407 18.8616 3.28133ZM13.5716 1.78588C13.5716 1.68163 13.6048 1.59598 13.6717 1.52918C13.7386 1.46229 13.8242 1.42879 13.9285 1.42879H14.6426C14.747 1.42879 14.8323 1.46218 14.8995 1.52918C14.9664 1.5961 14.9998 1.68175 14.9998 1.78588V5.00005C14.9998 5.10427 14.9664 5.18976 14.8995 5.25676C14.8323 5.32357 14.747 5.35714 14.6426 5.35714H13.9285C13.8242 5.35714 13.7386 5.32372 13.6717 5.25676C13.6048 5.18972 13.5716 5.10427 13.5716 5.00005V1.78588ZM5.00019 1.78588C5.00019 1.68163 5.03361 1.59598 5.10058 1.52918C5.16758 1.46229 5.25307 1.42879 5.35728 1.42879H6.0715C6.17576 1.42879 6.26141 1.46218 6.32821 1.52918C6.3951 1.5961 6.42867 1.68175 6.42867 1.78588V5.00005C6.42867 5.10427 6.39525 5.18988 6.32821 5.25676C6.26125 5.32357 6.17576 5.35714 6.0715 5.35714H5.35728C5.25307 5.35714 5.16746 5.32372 5.10058 5.25676C5.03377 5.18972 5.00019 5.10427 5.00019 5.00005V1.78588ZM17.8569 18.5714H2.14299V7.14291H17.8569V18.5714Z" fill="url(#paint0_linear)"/>
</g>
<defs>
<linearGradient id="paint0_linear" x1="-10.9816" y1="-15.9428" x2="21.6166" y2="-18.1118" gradientUnits="userSpaceOnUse">
<stop stop-color="#01579B"/>
<stop offset="1" stop-color="#53C5F7"/>
</linearGradient>
<clipPath id="clip0">
<rect width="20" height="20" fill="white"/>
</clipPath>
</defs>
</svg>
