<svg width="24" height="25" viewBox="0 0 24 25" fill="none" xmlns="http://www.w3.org/2000/svg">
<g clip-path="url(#clip0)">
<path d="M21.0692 2.87061H2.93385C1.31498 2.87061 -0.000976562 4.18656 -0.000976562 5.80543V18.2002C-0.000976562 19.8191 1.31498 21.135 2.93385 21.135H21.0642C22.6831 21.135 23.999 19.8191 23.999 18.2002V5.8104C24.004 4.19152 22.688 2.87061 21.0692 2.87061ZM22.6632 18.2002C22.6632 19.0792 21.9481 19.7943 21.0692 19.7943H2.93385C2.05489 19.7943 1.33981 19.0792 1.33981 18.2002V5.8104C1.33981 4.93144 2.05489 4.21635 2.93385 4.21635H21.0642C21.9432 4.21635 22.6582 4.93144 22.6582 5.8104V18.2002H22.6632Z" fill="url(#paint0_linear)"/>
<path d="M15.1349 11.8488L21.0046 6.58495C21.2777 6.33666 21.3025 5.91456 21.0542 5.63647C20.8059 5.36335 20.3838 5.33852 20.1058 5.58681L12.0114 12.8519L10.4323 11.4416C10.4273 11.4366 10.4223 11.4316 10.4223 11.4267C10.3876 11.3919 10.3528 11.3621 10.3131 11.3323L3.88726 5.58185C3.60917 5.33356 3.18708 5.35838 2.93878 5.63647C2.69049 5.91456 2.71532 6.33666 2.99341 6.58495L8.93257 11.8935L3.01824 17.4304C2.75008 17.6836 2.73518 18.1057 2.98844 18.3789C3.12252 18.5179 3.30129 18.5924 3.48006 18.5924C3.64393 18.5924 3.80781 18.5328 3.93692 18.4136L9.94064 12.7972L11.5694 14.2522C11.6986 14.3665 11.8575 14.4211 12.0164 14.4211C12.1753 14.4211 12.3392 14.3615 12.4633 14.2473L14.1368 12.7476L20.1058 18.4186C20.2349 18.5427 20.4037 18.6023 20.5676 18.6023C20.7464 18.6023 20.9202 18.5328 21.0542 18.3938C21.3075 18.1256 21.2976 17.6985 21.0294 17.4453L15.1349 11.8488Z" fill="url(#paint1_linear)"/>
</g>
<defs>
<linearGradient id="paint0_linear" x1="-15.116" y1="-11.6887" x2="26.8261" y2="-15.638" gradientUnits="userSpaceOnUse">
<stop stop-color="#01579B"/>
<stop offset="1" stop-color="#53C5F7"/>
</linearGradient>
<linearGradient id="paint1_linear" x1="-8.86468" y1="-5.10499" x2="23.3749" y2="-8.33953" gradientUnits="userSpaceOnUse">
<stop stop-color="#01579B"/>
<stop offset="1" stop-color="#53C5F7"/>
</linearGradient>
<clipPath id="clip0">
<rect width="24" height="24" fill="white" transform="translate(-0.000976562 0.00268555)"/>
</clipPath>
</defs>
</svg>
