<svg width="20" height="20" viewBox="0 0 20 20" fill="none" xmlns="http://www.w3.org/2000/svg">
<path d="M19.6372 8.82555L16.214 4.15608C15.763 3.54114 14.8488 3.07788 14.0904 3.07788L1.60705 3.07788C0.721533 3.07788 0 3.79941 0 4.68493L0 15.3153C0 16.2008 0.721533 16.9223 1.60705 16.9223H14.0904C14.8529 16.9223 15.7671 16.459 16.214 15.8441L19.6372 11.1746C20.1209 10.5187 20.1209 9.48559 19.6372 8.82555ZM18.7435 10.5269L15.3203 15.1964C15.0825 15.5243 14.4922 15.8195 14.0863 15.8195H1.60705C1.33238 15.8195 1.1069 15.594 1.1069 15.3194L1.1069 4.68493C1.1069 4.41026 1.33238 4.18478 1.60705 4.18478L14.0904 4.18478C14.4963 4.18478 15.0825 4.48405 15.3244 4.80792L18.7476 9.47739C18.9443 9.75207 18.9443 10.2522 18.7435 10.5269Z" fill="url(#paint0_linear)"/>
<defs>
<linearGradient id="paint0_linear" x1="-12.5958" y1="-7.95808" x2="22.292" y2="-11.5696" gradientUnits="userSpaceOnUse">
<stop stop-color="#01579B"/>
<stop offset="1" stop-color="#53C5F7"/>
</linearGradient>
</defs>
</svg>
