<svg width="24" height="24" viewBox="0 0 24 24" fill="none" xmlns="http://www.w3.org/2000/svg">
<g clip-path="url(#clip0)">
<path d="M25.3518 18.2876L24.2077 17.1527C24.0238 16.9704 23.727 16.9716 23.5446 17.1555C23.3622 17.3393 23.3635 17.6362 23.5473 17.8185L24.6915 18.9534C24.7829 19.0441 24.9022 19.0893 25.0216 19.0893C25.1422 19.0893 25.2628 19.0431 25.3545 18.9506C25.5369 18.7668 25.5357 18.4699 25.3518 18.2876Z" fill="url(#paint0_linear)"/>
<path d="M24.1841 17.1253L23.0399 15.9905C22.856 15.8081 22.5592 15.8093 22.3769 15.9932C22.1945 16.177 22.1958 16.4739 22.3796 16.6562L23.5237 17.7911C23.6151 17.8818 23.7345 17.9271 23.8539 17.9271C23.9745 17.9271 24.0951 17.8808 24.1867 17.7883C24.3692 17.6045 24.3679 17.3076 24.1841 17.1253Z" fill="url(#paint1_linear)"/>
<path d="M22.9466 15.9012L21.8024 14.7664C21.6186 14.584 21.3217 14.5852 21.1394 14.7691C20.957 14.9529 20.9583 15.2498 21.1421 15.4321L22.2862 16.567C22.3777 16.6577 22.497 16.703 22.6164 16.703C22.737 16.703 22.8576 16.6567 22.9492 16.5642C23.1317 16.3804 23.1305 16.0835 22.9466 15.9012Z" fill="url(#paint2_linear)"/>
<path d="M18.626 18.1053L23.4518 13.0983C24.1827 12.34 24.1827 11.106 23.4518 10.3476C23.1941 10.0802 22.8793 9.90756 22.5477 9.82876C22.6614 9.57518 22.7216 9.29688 22.7216 9.00888C22.7216 8.48933 22.5266 8.0009 22.1726 7.63358C21.8949 7.34542 21.5453 7.15934 21.1659 7.09231C21.3795 6.41702 21.2285 5.64363 20.7119 5.10767C20.4278 4.81301 20.0745 4.63343 19.7058 4.56779C19.7676 4.3733 19.8002 4.16791 19.8002 3.95716C19.8002 3.43761 19.6052 2.94918 19.2511 2.58187C18.8971 2.21455 18.4263 2.01221 17.9256 2.01221C17.6077 2.01221 17.3019 2.09405 17.0303 2.24773L16.9823 2.19422C16.3585 1.4987 15.4755 1.09985 14.5599 1.09985H10.6536C10.3789 1.09985 10.1562 1.33099 10.1562 1.616V2.29283C10.1562 2.5637 10.2003 2.8274 10.2848 3.07535C10.0598 2.97839 9.81633 2.92746 9.56536 2.92746C9.06461 2.92746 8.59385 3.1298 8.23978 3.49711C7.72292 4.03338 7.57207 4.80734 7.78618 5.48283C7.41719 5.54832 7.06341 5.728 6.77912 6.02292C6.42509 6.39029 6.23007 6.87872 6.23007 7.39821C6.23007 7.60855 6.26255 7.81363 6.32408 8.00771C5.94508 8.07495 5.59583 8.26093 5.3184 8.54883C4.74758 9.14108 4.62259 10.0235 4.94344 10.7428C4.60369 10.8234 4.29164 11.0009 4.03908 11.2629C3.3082 12.0212 3.3082 13.2552 4.03908 14.0135L5.03152 15.0432L0.145703 20.1123C-0.0485677 20.3139 -0.0485677 20.6407 0.145703 20.8423C0.242839 20.9431 0.370164 20.9935 0.49744 20.9935C0.624716 20.9935 0.752041 20.9431 0.849177 20.8423L5.78215 15.7241C6.06142 15.8895 6.37834 15.9779 6.70864 15.9779C7.20934 15.9779 7.68009 15.7756 8.03417 15.4082C8.41883 15.0092 8.60077 14.4783 8.58052 13.9544C8.60574 13.9555 8.63096 13.9563 8.65617 13.9563C9.13613 13.9562 9.61634 13.7667 9.9817 13.3876C10.3357 13.0202 10.5307 12.5318 10.5307 12.0123C10.5307 11.986 10.5299 11.9599 10.5289 11.9338C10.5538 11.9348 10.5787 11.9356 10.6037 11.9356C11.0837 11.9356 11.5638 11.7461 11.9292 11.3669C12.2833 10.9995 12.4783 10.5111 12.4783 9.99162C12.4783 9.96535 12.4774 9.93924 12.4764 9.91313C12.5014 9.91416 12.5263 9.91499 12.5512 9.91499C13.0313 9.91499 13.5114 9.7254 13.8768 9.34626C14.5635 8.63372 14.6049 7.50137 14.0011 6.7381L17.3033 3.31191C17.4695 3.13945 17.6903 3.04455 17.9253 3.04455C18.1603 3.04455 18.3812 3.13945 18.5474 3.31191C18.7135 3.48432 18.805 3.71344 18.805 3.95727C18.805 4.20104 18.7135 4.43027 18.5473 4.60262L18.0605 5.10777L16.2939 6.94064C16.0996 7.14221 16.0996 7.46901 16.2939 7.67063C16.391 7.77136 16.5184 7.82183 16.6457 7.82183C16.7729 7.82183 16.9003 7.77141 16.9974 7.67063L18.7639 5.83776C19.1069 5.4819 19.665 5.48185 20.008 5.83771C20.351 6.19362 20.351 6.77262 20.008 7.12853L19.5211 7.63373L18.2414 8.9614C18.0472 9.16296 18.0472 9.48977 18.2414 9.69139C18.3386 9.79212 18.4659 9.84259 18.5932 9.84259C18.7205 9.84259 18.8478 9.79217 18.9449 9.69139L20.2245 8.36372C20.3907 8.19126 20.6116 8.09636 20.8465 8.09636C21.0816 8.09636 21.3024 8.19126 21.4686 8.36372C21.6348 8.53613 21.7262 8.76525 21.7262 9.00908C21.7262 9.25286 21.6348 9.48208 21.4686 9.65444L20.8002 10.3478L20.1889 10.9821C19.9947 11.1837 19.9947 11.5105 20.1889 11.7121C20.2861 11.8128 20.4134 11.8633 20.5407 11.8633C20.6679 11.8633 20.7953 11.8129 20.8924 11.7121L21.5042 11.0774C21.8472 10.7221 22.4049 10.7221 22.7478 11.0778C23.0908 11.4337 23.0908 12.0127 22.7478 12.3687L17.9219 17.3756C16.7102 18.633 15.0996 19.3608 13.3871 19.4253C13.2612 19.4301 13.1416 19.4842 13.0527 19.5769L8.5947 24.2194C8.40078 24.4213 8.40132 24.7481 8.59599 24.9493C8.69303 25.0496 8.82005 25.0999 8.94708 25.0999C9.07466 25.0999 9.20233 25.0492 9.29946 24.948L12.5784 21.5334C13.4113 22.0877 14.3908 22.3513 15.3868 22.283L17.9531 24.9457C18.0503 25.0464 18.1776 25.0969 18.3049 25.0969C18.4322 25.0969 18.5595 25.0465 18.6566 24.9457C18.8509 24.7441 18.8509 24.4173 18.6566 24.2157L15.9281 21.3844C15.8247 21.2773 15.6812 21.2225 15.5356 21.2349L15.3779 21.2483C14.6499 21.3103 13.9303 21.1448 13.3021 20.7795L13.6218 20.4466C15.5126 20.3256 17.2828 19.499 18.626 18.1053ZM7.33069 14.6783C7.16452 14.8508 6.94359 14.9457 6.70869 14.9457C6.47368 14.9457 6.2528 14.8508 6.08668 14.6783L4.7425 13.2837C4.39952 12.9279 4.39952 12.3488 4.7425 11.9929C4.90867 11.8205 5.1296 11.7256 5.36456 11.7256C5.59951 11.7256 5.82044 11.8205 5.98656 11.9929L7.33074 13.3875C7.67368 13.7434 7.67368 14.3224 7.33069 14.6783ZM9.27833 12.6576C8.93529 13.0134 8.3771 13.0134 8.03422 12.6576L6.69004 11.2629L6.02168 10.5695C5.67869 10.2136 5.67869 9.63457 6.02168 9.27871C6.18785 9.10625 6.40878 9.01135 6.64368 9.01135C6.87869 9.01135 7.09957 9.10625 7.26569 9.27871L9.27818 11.3668C9.27818 11.3668 9.27818 11.3668 9.27823 11.3668C9.44445 11.5392 9.53591 11.7684 9.53591 12.0122C9.53591 12.2559 9.44445 12.4852 9.27833 12.6576ZM11.2259 10.6369C10.8828 10.9927 10.3247 10.9927 9.98175 10.6369L7.48234 8.04362C7.31617 7.87122 7.22471 7.64209 7.22471 7.39827C7.22471 7.15449 7.31617 6.92526 7.48239 6.75291C7.65388 6.57498 7.87919 6.48601 8.1044 6.48601C8.3295 6.48601 8.55456 6.57487 8.726 6.7525L9.86517 7.93443L11.2258 9.34611H11.2258C11.3919 9.51852 11.4834 9.74764 11.4834 9.99147C11.4835 10.2353 11.392 10.4645 11.2259 10.6369ZM13.1734 8.61617C12.8305 8.97203 12.2724 8.97203 11.9294 8.61617L9.42997 6.02292C9.42973 6.02266 9.42943 6.0224 9.42913 6.02209L8.94305 5.51777C8.60007 5.16186 8.60007 4.58286 8.94305 4.22695C9.11454 4.04897 9.33985 3.96 9.56511 3.96C9.79036 3.96 10.0157 4.04897 10.1871 4.22695L13.1733 7.3253C13.3396 7.49771 13.431 7.72688 13.431 7.97066C13.4311 8.21454 13.3397 8.44381 13.1734 8.61617ZM13.3042 6.0013L11.9379 4.58363C12.0928 4.61795 12.2521 4.63617 12.4143 4.63611C12.4179 4.63611 12.4216 4.63611 12.4253 4.63611L13.7904 4.62946C14.0651 4.62812 14.2868 4.39595 14.2856 4.11089C14.2843 3.82666 14.0618 3.59717 13.7881 3.59717C13.7873 3.59717 13.7865 3.59717 13.7857 3.59717L12.4206 3.60383C12.4185 3.60383 12.4165 3.60383 12.4144 3.60383C12.078 3.60383 11.7617 3.46837 11.5231 3.22206C11.2831 2.97416 11.151 2.6442 11.151 2.29278V2.13209H14.5598C15.2002 2.13209 15.8176 2.41101 16.2539 2.89742L16.2742 2.91998L13.3042 6.0013Z" fill="url(#paint3_linear)"/>
</g>
<defs>
<linearGradient id="paint0_linear" x1="18.1775" y1="11.0759" x2="26.0477" y2="10.5084" gradientUnits="userSpaceOnUse">
<stop stop-color="#01579B"/>
<stop offset="1" stop-color="#53C5F7"/>
</linearGradient>
<linearGradient id="paint1_linear" x1="18.1775" y1="11.0759" x2="26.0477" y2="10.5084" gradientUnits="userSpaceOnUse">
<stop stop-color="#01579B"/>
<stop offset="1" stop-color="#53C5F7"/>
</linearGradient>
<linearGradient id="paint2_linear" x1="18.1775" y1="11.0759" x2="26.0477" y2="10.5084" gradientUnits="userSpaceOnUse">
<stop stop-color="#01579B"/>
<stop offset="1" stop-color="#53C5F7"/>
</linearGradient>
<linearGradient id="paint3_linear" x1="-15.115" y1="-18.0315" x2="26.9828" y2="-21.0481" gradientUnits="userSpaceOnUse">
<stop stop-color="#01579B"/>
<stop offset="1" stop-color="#53C5F7"/>
</linearGradient>
<clipPath id="clip0">
<rect width="24" height="24" fill="white"/>
</clipPath>
</defs>
</svg>
